<?xml version="1.0" encoding="UTF-8"?><svg id="a" xmlns="http://www.w3.org/2000/svg" viewBox="0 0 214.46 165.2"><defs><style>.b{fill:#dbe189;}.c{fill:#fff;}.d{fill:#ca5145;}.e{fill:#c95146;}.f{fill:#2a2221;}.g{fill:#cc4f44;}.h{fill:#cb5145;}.i{fill:#ced06d;}.j{fill:#cc5446;}.k{fill:#1f1d1d;}.l{fill:#ce7647;}.m{fill:#1d1c1b;}</style></defs><rect class="c" x="65.99" width="84.82" height="27.59"/><g><path class="h" d="M49.21,96.34c-2.3,.24-4.57,.76-6.92,.6-2-.14-2.01-.04-2.02-2.04,0-4.08,.06-8.15-.04-12.23-.03-1.21,.66-1.84,1.43-2.3,1.45-.85,2.98-1.68,4.58-2.13,.98-.28,1.94-.91,3.05-.7,.32-.01,.63-.02,.95-.04,2.38-.13,4.69-.95,7.09-.72,.98,.09,1.2-.29,1.2-1.22-.03-12-.03-24-.04-36,.1-.34,.2-.69,.31-1.02,.13-.4,.17-.7-.41-.66-.42,.03-.71-.13-.65-.62,.06-.52,.48-.4,.81-.47,.83-.16,1.43,.47,2.18,.58,.14,.46-.48,.44-.51,.79-.03,.08-.05,.16-.07,.25-.9,.2-1.16,.79-1.16,1.65,.01,11.87,.02,23.74,0,35.61,0,.81,.22,1.09,1.06,1.12,2.41,.09,4.8-.04,7.24,.38,2.26,.39,4.67,.54,7.02,.4l.11,.04h.12c.05,.28,.17,.48,.51,.49,1.22,.06,2.48-.14,3.61,.52h1.36l.54,.07,.08,.04,.09-.02c.49,.93,1.32,.37,2.01,.45l.52,.06c.08,.51,.44,.53,.84,.48h1.9c.75,.07,1.31,.91,2.17,.55l1.9,.05c.25,.75,.85,.49,1.37,.49,1.22,.08,2.41,.16,3.63,.52,1.27,.38,2.68,.25,4.05,.47,2.03,.33,4.14,.53,6.21,.63,3.37,.18,6.75,.47,10.14,.34,.5-.02,1,.02,1.32,.5-.03,.07-.09,.17-.07,.21,.03,.05,.14,.09,.21,.09,3.02,0,6.04-.01,9.06-.02,.23,0,.45,.02,.68,.01,6.79-.27,13.61,.6,20.38-.5,1.15-.19,2.35-.04,3.53-.04,.45,0,.92,.04,1.23-.39,.66-.26,1.34-.14,2.01-.15,1.59-.02,1.61-.01,1.61-1.54,0-13.57,0-27.14,.01-40.71,0-.78-.24-1.31-.85-1.82-1.09-.91-2.15-1.88-2.7-3.25,.84-.01,1.78-.2,1.6,1.19-.05,.39,.26,.67,.66,.69,.78,.04,1.36,.55,2.03,.84h0c-.03,.13-.03,.28-.1,.37-.48,.57-.7,.97,.38,.75,.42-.08,.53,.2,.51,.56-1.05-.3-1.06,.35-1.06,1.11,.01,13.33,0,26.66,.02,39.99,0,.41-.23,.91,.25,1.24,.93,.07,1.8-.23,2.69-.39,1.72-.3,3.37-.76,5.06-1.18,.96-.24,1.24-.72,1.24-1.58,0-1.58,.03-3.16,.04-4.73,2.35-.95,4.8-1.25,7.31-1.07,1.14,.08,1.64,.65,1.65,1.77,.02,4.39,.01,8.78,.02,13.17,0,.54-.13,.94-.54,1.39-1.63,1.81-3.55,3.07-5.86,3.87-.87,.3-1.82,.46-2.6,1.02-.44,.02-.83,.04-1.27,.26-.81,.39-1.72,.69-2.62,.78-1.2,.12-2.35,.48-3.49,.73-1.76,.4-3.57,.46-5.29,1.03-.58-.13-1.18-.11-1.75-.02-.55,.09-.98,.52-1.62,.5-1.71-.06-3.43,0-5.15,0-.54-.01-1.02,.27-1.59,.26-7.93-.17-15.86,.31-23.78-.28-2.9-.2-5.8,.03-8.74-.37-2.62-.36-5.31-.72-8-.72-2.05,0-4.03-.87-6.11-.56-.08,.01-.18-.01-.27-.05-1.77-.76-3.71-.78-5.55-.94-1.73-.15-3.36-.95-5.13-.66-1.17-1.04-2.71-.48-4.08-.9-1.89-.59-4.03-.33-6.03-.93-.98-.29-2.04-.19-3.09-.48-1.54-.43-3.22-.26-4.85-.55-2.24-.39-4.6-.08-6.91-.13-.76-.02-.91,.3-.89,.96,.02,1.22-.03,2.44-.05,3.66-.53,.06-.43-.34-.43-.63-.01-.95-.07-1.9,.01-2.84,.08-.96-.26-1.22-1.21-1.19-2.48,.08-4.97-.02-7.42,.59-.54,.13-.62,.4-.63,.84-.02,1.26-.04,2.52-.07,3.78Zm10.31-58.63s0,.08,.02,.09c.03,.02,.09,.04,.11,.02,.1-.06,.09-.12-.03-.15-.03,0-.07,.02-.11,.04Z"/><path class="k" d="M49.21,96.34c.02-1.26,.05-2.52,.07-3.78,0-.44,.09-.71,.63-.84,2.45-.61,4.93-.51,7.42-.59,.95-.03,1.29,.23,1.21,1.19-.08,.94-.02,1.89-.01,2.84,0,.29-.1,.69,.43,.63,.09,.3,.15,.6,.59,.58,.39-.02,.75,.16,1.12,.29,1.31,.46,2.55,1.17,3.95,1.33,1.8,.2,3.37,1.1,5.1,1.54,1.34,.35,2.62,.94,3.92,1.46,1.2,.48,2.53,.7,3.65,1.24,2.25,1.1,4.7,1.46,7.02,2.26,1.25,.43,2.56,.78,3.75,1.28,1.17,.49,2.38,1.02,3.56,1.33,1.36,.36,2.6,1.01,3.98,1.33,1.99,.46,3.99,1.05,5.9,1.82,.68,.28,1.5,.31,2.04,.68,1.07,.73,2.43,.62,3.44,1.42,.15,.12,.55,.04,.78-.07,1.37-.6,2.76-1.13,4.2-1.57,.69-.21,1.41-.38,2.06-.64,.89-.36,1.68-.92,2.69-.98,1.22-.07,2.44-.45,3.48-.94,1.77-.84,3.67-1.26,5.46-2,1.2-.49,2.48-.83,3.7-1.25,1.28-.44,2.51-1.03,3.85-1.2,.87-.11,1.76-.4,2.43-.74,1.66-.85,3.46-1.21,5.15-1.92,1.99-.84,4.09-1.46,6.15-2.17,.59-.21,1.12-.66,1.82-.64,1.31,.03,2.42-.79,3.71-.9,.05,0,.08-.23,.12-.36,1.72-.57,3.53-.63,5.29-1.03,1.14-.26,2.29-.62,3.49-.73,.89-.09,1.81-.39,2.62-.78,.44-.21,.84-.24,1.27-.26,0,2.76-.01,5.53-.01,8.29,0,1.45-.06,1.57-1.42,2-1.98,.63-3.9,1.41-5.85,2.13-2.04,.76-4.13,1.37-6.17,2.15-1.08,.41-2.3,.52-3.45,.84-.69,.19-1.36,.51-2.02,.74-2.05,.69-4.1,1.42-6.17,2.1-2.07,.68-4.1,1.44-6.23,1.98-1.75,.45-3.49,1.34-5.24,1.9-1.31,.42-2.62,.95-3.96,1.33-2.11,.59-4.16,1.35-6.29,1.93-1.76,.48-3.49,1.3-5.23,1.94-1.52,.56-3.06,1.12-4.6,1.64-.9,.31-1.98,.27-3.06-.24-1.19-.55-2.53-.91-3.8-1.34-1.25-.42-2.56-.73-3.75-1.39-.63-.35-1.43-.55-2.16-.7-1.47-.31-2.85-.92-4.26-1.28-1.87-.47-3.59-1.31-5.43-1.85-1.23-.36-2.49-.81-3.7-1.37-.67-.31-1.49-.66-2.33-.73-1.31-.11-2.51-.63-3.72-1.14-.68-.29-1.41-.51-2.11-.69-1.48-.39-2.81-1.22-4.28-1.54-2.33-.5-4.35-1.99-6.8-2.07-.63-.02-1.21-.42-1.77-.65-1.48-.6-3.03-.96-4.49-1.55-1.22-.5-2.47-.96-3.7-1.41-1.1-.4-2.2-.88-3.32-1.2-.64-.18-.63-.44-.63-.9,0-1.99,0-3.99,0-5.98,0-.27-.04-.54-.06-.81Z"/><path class="g" d="M93.31,26.43c.62-1.79,.53-3.72,.97-5.5,.48-1.93,.82-3.91,1.36-5.84,.32-1.13,.62-2.38,.79-3.61,.16-1.17,.3-2.42,.85-3.54,.4-.82,.33-1.79,.53-2.68,.26-1.13,.75-2.26,.73-3.48-.02-1.41,.36-1.73,1.76-1.73,4.67,0,9.33,0,14,0,1.25,0,1.59,.31,1.64,1.58,.06,1.5,.63,2.87,.98,4.3,.24,.98,.31,1.99,.62,2.99,.46,1.49,.71,3.06,.98,4.59,.21,1.16,.57,2.31,.77,3.47,.19,1.13,.29,2.34,.84,3.42,.39,.75,.1,1.61,.24,2.41,.2,1.22,.37,2.45,.78,3.62-.02,1.09-.04,2.18-.06,3.27-.21,.05-.5,.05-.49,.35,.09,2.48-1.33,4.34-2.7,6.12-2.61,3.4-6.34,4.77-10.46,5.2-1.82,.19-3.5-.69-5.23-1.11-1.13-.27-2.18-.77-3.05-1.58-1.16-1.07-2.31-2.13-3.22-3.48-.88-1.31-1.96-2.48-2.1-4.15-.04-.5,.38-1.15-.47-1.37l-.08-3.27Z"/><path class="g" d="M157.01,39.56c.02-.36-.1-.64-.51-.56-1.08,.22-.86-.18-.38-.75,.08-.09,.07-.25,.1-.37,.13,0,.27,.01,.4,0,.24-.03,.68,0,.51-.35-.14-.29-.38-.79-.87-.67-.42,.1-.18,.4-.1,.64,.04,.13,.04,.26,.06,.39-.67-.29-1.25-.79-2.03-.84-.4-.02-.71-.3-.66-.69,.18-1.39-.76-1.21-1.6-1.19-.07-.06-.1-.13-.09-.22,.03-.37,.03-.7-.36-.93-.52-.31-.73-.99-.58-1.41,.48-1.35-.59-1.85-1.22-2.6-.46-.05-.6-.36-.6-.77,.02-.9,.02-1.8,.05-2.7,.01-.38-.11-.61-.51-.64-1.58-2.55-2.92-5.25-4.79-7.64-.76-.97-1.36-2.08-1.83-3.28-.44-1.08-1.37-1.95-1.99-2.97-1.35-2.21-2.92-4.27-4.16-6.56-.69-1.28-1.53-2.49-2.38-3.68-.35-.49-.86-1.13-.74-1.52,.13-.44,.96-.18,1.48-.18,4.67-.02,9.34,.01,14.01-.02,.87,0,1.46,.26,2.07,.9,2.03,2.1,4.02,4.27,6.27,6.12,2.28,1.88,4.3,4.01,6.43,6.04,1.92,1.83,3.69,3.85,5.74,5.52,1.65,1.34,3.15,2.81,4.62,4.31,.94,.95,1.8,2.02,2.86,2.81,1.4,1.04,1.15,2.42,.77,3.6-.24,.74-.43,1.57-.78,2.33-.56,1.19-1.12,2.35-1.77,3.5-.53,.94-1.1,1.8-1.91,2.42-1.45,1.12-2.88,2.28-4.75,2.8-.87,.24-1.69,.5-2.59,.51-.39,.03-.79-.07-1.14,.26-.32,.3-.79,.28-1.15,.12-1.61-.69-3.5-.2-5.04-1.2-.19-.13-.53-.04-.8-.05l-.05-.48Zm.74-.43c.22-.21,.78,0,.76-.5,0-.24-.35-.2-.55-.2-.32,0-.65,.02-.6,.48,.02,.21,.18,.27,.39,.22Z"/><path class="g" d="M60.73,37.36c-.75-.11-1.35-.74-2.18-.58-.34,.07-.76-.05-.81,.47-.05,.49,.23,.64,.65,.62,.58-.04,.54,.27,.41,.66-.11,.34-.21,.68-.31,1.02l-.52-.09c-.54-.93-1.37-.34-1.72-.05-.7,.59-1.12,1.07-1.73-.04-.07-.12-.93-.18-1.13,.23-.22,.44-.52,.49-.87,.43-.59-.1-.82,.49-1.3,.59-.18,.04-.32,.23-.13,.39,.12,.09,.34,.07,.51,.09-.33,.47-.8,.33-1.11,.09-.39-.31-.81-.19-1.21-.28-2.11-.21-4.07-.81-5.74-2.17-.56-.45-1.21-.73-1.75-1.27-1.61-1.61-2.52-3.58-3.49-5.57-.43-.89-.54-1.83-.89-2.73-.65-1.68,.12-3.16,1.56-4.19,1.47-1.06,2.44-2.59,3.78-3.76,.18,.03,.25-.06,.22-.23l.03-.1c.1-.01,.15-.07,.14-.17,.06,.02,.1,0,.12-.05,1.41-1.01,2.83-2.01,3.83-3.48,.73-.11,1.03-.78,1.48-1.21,1.99-1.89,3.83-3.95,5.86-5.79,2.38-2.16,4.81-4.25,7.04-6.57,1-1.04,2.08-2,3.08-3.04,.37-.38,.75-.55,1.28-.55,5.03,.01,10.06,.01,15.09,0,.79,0,1.24-.02,.52,.95-.6,.81-1.06,1.74-1.68,2.56-.92,1.2-1.46,2.65-2.31,3.87-1.65,2.37-3.09,4.87-4.83,7.2-.68,.91-1.02,2.19-1.7,3.18-1.17,1.7-2.34,3.4-3.46,5.13-.4,.61-.25,1.54-1.09,1.89-.63-.19-1.46,.46-1.91-.5-.12-.25-.2,.04-.2,.11-.02,.27-.11,.62,.12,.77,1,.69,.53,.98-.28,1.27-.65,.24-.46,.87-.33,1.28,.17,.55,.61,.05,.92,.04,.21,0,.41-.16,.62-.25v.81c-.21,.06-.42,.14-.64,.19-1.03,.24-1.26,1.1-1.51,1.94-.29,1,.85,.7,1.11,1.19,.01,.08,0,.15-.06,.22-.56,.17-.99,.94-1.73,.21-.29-.29-.43,.18-.38,.41,.1,.44,.36,.82,.88,.81,.39,0,.42,.23,.47,.49h0c-.13,.04-.27,.13-.38,.11-.8-.18-.74,.1-.36,.61,.05,.07-.05,.25-.08,.38h.01c-.57-.05-1.14-.03-1.7-.26-.45-.18-.76,.1-.92,.52-.13,.34-.26,.89,.09,.93,.98,.11,.54,.77,.62,1.24h0Zm-2.47,1.06s-.02-.07-.05-.1c-.01-.02-.05-.02-.08-.02l.12,.12s.02,.07,.05,.1c.01,.02,.05,.02,.08,.02l-.12-.12Z"/><path class="e" d="M162.21,127.35c-.04-.35-.52-.22-.59-.54-.23-.62-.33-1.33-1.04-1.65h0c-.03-.15-.1-.26-.28-.22-1.22-1.66-2.33-3.38-3.33-5.18-.13-.23-.33-.3-.51-.41-.65-.38-.9-.9-.14-1.29,1.22-.63,1.94-1.84,3.14-2.48,.52-.28,.77-.3,1.23,.15,1.11,1.07,1.9,2.36,2.72,3.63,.49,.76,1.03,1.51,1.58,2.19,1.83,2.24,3.54,4.57,5.15,6.95,.94,1.39,2.15,2.53,3.06,3.92,1.09,1.65,2.34,3.19,3.4,4.85,.36,.56,1.36,.85,1.03,1.69-.23,.59-1.18,.56-1.51,1.17-.18,.34-.53,.42-.78,.45-.62,.07-.87,.46-1.22,.9-.46,.59-.87,1.04-1.89,.37-2.37-1.55-4.88-2.88-7.23-4.49-1.29-.88-2.57-1.84-4.02-2.51-.31-.14-.69-.27-.86-.01-.22,.33,.28,.35,.43,.54,1.08,1.45,2.28,2.82,3.02,4.5,.05,.12,.06,.31,.14,.36,1.81,1.17,2.47,3.29,3.9,4.78,.56,.58,.39,.97-.27,1.42-1.08,.72-2.16,1.46-3.14,2.3-.56,.48-.62,.37-1.02-.19-.76-1.07-1.6-2.11-2.45-3.12-.88-1.06-1.94-2.08-2.42-3.47-.09-.26-.29-.52-.49-.77-1.31-1.59-2.47-3.31-3.75-4.91-.83-1.04-1.5-2.19-2.37-3.19-.41-.48-.66-1.1-1.06-1.59-1.48-1.82-3.06-3.55-4.14-5.68-.23-.45-.29-.46,.12-.73,1.14-.76,2.29-1.53,3.33-2.42,.71-.61,1.22-.65,1.95-.07,.95,.75,1.93,1.51,3.01,2.03,1.05,.5,2.21,.86,3.03,1.64,1.09,1.03,2.47,1.45,3.7,2.18,.11,.86,1.06,.56,1.47,1.04,.12,.14,.52-.11,.37-.33-.41-.62-.61-1.39-1.28-1.82Z"/><path class="d" d="M15.8,77.6c-.5,.73-1.2,1.12-2.09,1.07-1.98-.13-3.84,.8-5.85,.64-.65-.05-1.38,.46-2.16,.48-1.68,.06-3.03-.94-3.62-2.55-.34-.92-.27-1.82-.47-2.7-.44-1.98-.28-4.05-.95-5.99-.2-.57-.07-1.26-.11-1.89-.04-.7,.12-1.41-.41-2.05-.28-.35-.15-.82,.35-1.13,.24-.15,.45-.32,.71-.29,2.05,.28,4.07-.31,5.97-.71,1.95-.41,3.94-.14,5.89-.8,1.61-.55,3.53-.1,5.23-.46,2.07-.43,4.23-.18,6.25-.94,.56-.21,1.26-.05,1.89-.1,.7-.06,1.41,.16,2.07-.37,.45-.36,.95-.11,.88,.5-.22,1.87,.28,3.73,.71,5.43,.48,1.92,.02,3.89,.84,5.75,.68,1.56-.62,4.3-2.13,5.13-.12,.06-.26,.16-.38,.14-1.69-.27-3.22,.64-4.9,.6-1.85-.05-3.69,.41-5.55,.19-.03-.57-.45-.5-.83-.49h0c0-.47-.28-.6-.68-.52-.5,.1-.37,.5-.35,.83v-.02c-.16,.02-.26,.11-.31,.26Zm-5.15-9.81c-1.12-.38-2.28,.47-3.55,.53-.67,.03-.74,.3-.84,.89-.24,1.4,.61,2.58,.62,3.92,0,.46,.44,.34,.73,.39,1.82,.28,3.51-.55,5.3-.59,.45,0,.43-.36,.45-.68,.05-.82-.19-1.61-.25-2.42-.16-2.04-.15-2.04-2.45-2.03Zm14.68,1.91c.19-1.01-.77-1.94-.61-3.1,.05-.36-.31-.29-.6-.25-1.56,.2-3.14,.12-4.72,.3-.98,.12-1.13,.41-1.17,1.29-.04,1.07,.8,1.9,.59,2.98-.16,.81,.29,.99,1.01,.95,1.26-.07,2.5-.33,3.77-.29,1.69,.05,1.74-.05,1.73-1.88Z"/><path class="d" d="M209.8,79.78c-1.7,.1-3.59-.57-5.55-.73-1.1-.09-2.4,0-3.37-.46-1.82-.86-3.76-.24-5.63-.86-1.45-.48-3.21-.39-4.84-.38-1.98,.02-3.86-.85-5.86-.62-.5,.06-.84-.44-1.34-.55-.56-.13-.37-.75-.17-1.01,.41-.53,.41-1.09,.39-1.67-.06-2.06,.87-4.03,.59-6.11,.95-1.51,.22-3.27,.71-4.87,.17-.54,.3-.92,.78-1.27,1.65-1.19,3.36-1.56,5.25-.65,.08,.04,.18,.06,.26,.06,1.89-.17,3.7,.46,5.56,.57,1.04,.06,2.08,.14,3.1,.3,.83,.14,1.38,.62,1.7,1.48,.35,.93,.65,1.82,.56,2.83-.06,.78,.53,.61,.93,.46,2.01-.76,4.04-1.44,6.08-2.12,1.28-.43,2.62-.73,3.84-1.38,1.21-.64,1.85-.25,1.6,1.09-.24,1.31-.6,2.59-.52,3.95,.03,.51-.5,.95-.76,.97-1.38,.08-2.48,.94-3.77,1.26-1.23,.31-2.55,.62-3.66,1.36-.55,.37-1.22,.15-1.83,.36-.6,.21-1.3,.13-1.83,.61-.16,.15-.63-.07-.55,.37,.05,.25,.38,.17,.59,.17,1.84,0,3.62,.51,5.43,.71,1.27,.14,2.55,.3,3.84,.41,1.34,.11,1.99,1.27,1.36,2.68-.31,.7-.46,1.36-.41,2.07,.05,.75-.19,1.1-.99,.98-.4-.06-.81,0-1.5,0Zm-15.88-7.65c.13,0,.31,0,.49,0,1.23-.01,1.23-.01,1.26-1.25,.02-.57,.03-1.1,.36-1.66,.38-.66,.37-1.56,.09-2.24-.22-.54-1.05-.33-1.6-.42-.79-.14-1.62-.07-2.43-.12-.53-.03-1.08,.12-1.56-.25-.62-.47-.76-.08-.81,.46-.07,.69,0,1.35-.58,1.99-.52,.58-.27,1.54-.23,2.34,.02,.35,.27,.65,.61,.59,1.52-.26,2.87,.66,4.41,.56Z"/><path class="e" d="M195.68,117.29c-.06,.74-.17,1.57-.83,2.3-2.23,2.47-3.85,5.44-6.29,7.75-.3,.28-.35,.81-.53,1.21-.49,1.08-1.4,1.41-2.16,.61-2-2.12-4.58-3.48-6.79-5.32-1.41-1.17-2.95-2.21-4.36-3.37-2.26-1.86-4.79-3.37-6.89-5.44-1.06-1.05-2.53-1.6-3.69-2.59-.57-.49-.67-.56-.21-1.27,1.46-2.24,3.62-3.94,4.83-6.39,.5-1.01,1.49-1.78,2.25-2.66,.47-.55,.84-1.16,1.49-1.57,1.53-.97,2.73-.77,4.27,.3,1.99,1.38,3.7,3.14,5.86,4.29,.67,.35,1.18,1.02,1.73,1.56,1.28,1.27,2.85,2.15,4.3,3.16,1.41,.98,2.55,2.25,3.91,3.27,.42,.31,.91,.44,1.32,.77,1.41,1.1,1.78,1.59,1.77,3.41Zm-9.7,4.36c.25,.02,.35-.16,.51-.33,.61-.67,1.27-1.27,1.78-2.04,.33-.5,1.08-.87,1.15-1.37,.1-.75-.88-.81-1.36-1.21-2.17-1.78-4.57-3.31-6.69-5.12-1.88-1.6-4-2.86-5.81-4.53-.53-.49-.89-.53-1.44,0-.87,.83-1.38,1.98-2.4,2.69-.42,.29-.3,.67,.09,1.1,1,1.13,2.46,1.74,3.33,3,.08,.12,.32,.18,.49,.2,.64,.05,1.03,.51,1.43,.89,.94,.9,2,1.64,2.97,2.51,1.58,1.42,3.55,2.38,5.19,3.77,.24,.21,.41,.45,.77,.44Z"/><path class="e" d="M50.94,112.83c.14,1.28-.78,2.28-1.77,2.85-1.46,.85-2.47,2.16-3.82,3.11-2.4,1.69-4.49,3.8-6.83,5.54-1.81,1.35-3.43,2.9-5.22,4.26-1.28,.97-2.52,1.98-4.37,1.56-.58-.13-1-.41-1.35-.73-1.66-1.55-2.92-3.44-4.26-5.25-.44-.59-.97-1.1-1.49-1.63-.97-.98-1.48-2.34-2.66-3.17-.44-.31-.25-.84,.06-1.2,.34-.39,.71-.79,1.14-1.07,1.92-1.23,3.5-2.91,5.37-4.18,1.9-1.28,3.36-3.08,5.32-4.29,1.63-1,3.07-2.27,4.37-3.64,.68-.72,1.65-.87,2.29-1.48,.98-.93,2.08-1.71,3.01-2.67,.52-.54,.84-.63,1.37-.03,1.59,1.79,3.33,3.43,4.56,5.55,.73,1.25,1.93,2.22,2.93,3.32,.78,.86,1.38,1.79,1.35,3.16Zm-6.41-.72c-.04-.08-.06-.12-.09-.15-.9-.83-1.2-2.13-2.26-2.82-.75-.49-1.25-1.13-2.4-.17-1.46,1.22-2.96,2.45-4.54,3.56-.3,.21-.34,.71-.71,.92-1.87,1.03-3.53,2.35-5.1,3.79-.83,.76-1.67,1.53-2.6,2.16-.56,.38-.3,.41,.03,.7,.98,.87,1.57,2.05,2.34,3.09,.51,.68,.81,.83,1.41,.16,1.26-1.42,3.11-2.17,4.3-3.69,.08-.1,.2-.18,.31-.24,1.52-.78,2.8-1.92,4.03-3.04,1.44-1.32,2.92-2.55,4.61-3.53,.28-.16,.46-.49,.67-.73Z"/><path class="e" d="M6.8,94.18c.01-1.42,1.45-3.18,2.79-3.57,1.48-.43,2.8-1.26,4.23-1.85,.81-.33,1.57-.85,2.46-1,1.05-.18,1.93-.69,2.86-1.16,1.61-.82,3.28-1.54,4.96-2.2,.96-.38,1.88-.86,2.8-1.29,1-.46,2.06-.68,3.07-1.08,1.67-.67,3.71,.57,4.38,2.31,.87,2.25,1.75,4.49,2.82,6.67,.37,.76,.63,1.59,1.07,2.33,.54,.92-.35,3.31-1.73,4.06-1.45,.79-3.02,1.37-4.58,1.93-1.52,.55-2.92,1.36-4.42,1.93-2.1,.79-3.96,2.09-6.2,2.61-1.67,.39-3.15,1.35-4.71,2.06-.68,.31-1.38,.6-2.1,.77-1.2,.29-2.98-.97-3.57-2-1.03-1.77-1.84-3.68-2.52-5.57-.58-1.61-1.65-3.12-1.61-4.95Zm6.31,2.08s.06,.24,.08,.47c.13,1.26,1.27,2.09,1.41,3.35,.04,.33,.48,.38,.79,.19,.78-.47,1.73-.63,2.46-1.07,2.08-1.27,4.48-1.66,6.62-2.79,2.33-1.24,4.83-2.21,7.24-3.31,.32-.15,.51-.33,.34-.57-.81-1.14-1.09-2.5-1.63-3.75-.13-.3-.55-.97-.88-.67-1.1,.99-2.54,1.19-3.79,1.79-1.41,.68-2.85,1.36-4.34,1.91-1.41,.52-2.78,1.2-4.22,1.65-1.11,.35-2.03,1.15-3.22,1.31-.72,.1-.9,.64-.86,1.49Z"/><path class="m" d="M157.06,40.04c.27,0,.6-.08,.8,.05,1.54,1,3.43,.51,5.04,1.2,.36,.16,.83,.18,1.15-.12,.35-.33,.75-.22,1.14-.26,0,10.27,0,20.54,.01,30.82,0,.77,.03,1.54,.05,2.31-.01,1.58-.03,3.16-.04,4.73,0,.86-.28,1.33-1.24,1.58-1.68,.42-3.34,.88-5.06,1.18-.89,.15-1.76,.46-2.69,.39,0-13.34,0-26.69,0-40.03,0-.36,.02-.73,0-1.09-.05-.64,.32-.77,.84-.75Z"/><path class="e" d="M72.99,140.14c-.05,.07-.07,.15-.06,.23-.16,.06-.42,.02-.45,.24-.22,1.56-.78,3.01-1.44,4.43-.55,1.19-.94,2.45-1.51,3.63-.44,.92-.57,1.98-1.12,2.88-.12,.2,0,.45,.29,.49,1.43,.23,2.65,.95,3.9,1.6,.36,.18,.73,.17,.92-.42,.33-1.02,.77-2.01,1.24-2.96,1.3-2.63,1.36-2.61-1.18-3.83-.08-.04-.18-.03-.27-.05-.45-.1-.46-.44-.29-.73,.71-1.23,.94-2.63,1.5-3.91l.08-.52h0c1.96,.59,3.75,1.61,5.71,2.19,.85,.26,1.66,.69,2.47,1.08,.43,.21,.34,.68,.18,.95-1.52,2.69-2.27,5.71-3.55,8.51-.66,1.45-1.57,2.94-1.56,4.67,0,.64-.41,1.23-.69,1.69-.32,.52-1.28,.35-1.88,.05-.78-.38-1.52-.82-2.39-.94-.09-.01-.23,0-.26-.05-.78-1.65-2.57-.87-3.76-1.57-1.32-.77-2.78-1.16-4.29-1.51-1.5-.35-2.61-2.55-2.54-4.09,.03-.66,.43-1.16,.66-1.67,1.07-2.43,1.96-4.94,2.99-7.39,.62-1.47,1.36-2.98,1.6-4.67,.22-1.5,1.15-2.86,1.73-4.3,.33-.82,.59-1.67,.92-2.49,.69-1.72,2.05-3.77,4.55-3.25,1.17,.24,2.36,.65,3.37,1.25,.58,.35,1.19,.46,1.74,.55,1.35,.23,2.44,1.04,3.7,1.42,.9,.27,1.72,.82,2.7,.84,.35,.61,.76,1.08,.14,1.93-.32,.44-.57,1.22-.76,1.89-.47,1.65-.58,1.55-2.42,.9-.49-.17-.91-.44-1.37-.64-1.65-.71-3.44-1.02-5.06-1.84-.72-.37-1.62,.03-1.94,.79-.39,.94-.7,1.92-1.12,2.85-.25,.56-.65,1.06-.48,1.73Z"/><path class="d" d="M101.29,135.2c.9,.04,1.81,.06,2.71,.13,.72,.05,1.06,.37,1.08,1.2,.05,1.82,.43,3.6,.97,5.34,.04,.13,.09,.27,.07,.4-.26,1.65,.32,3.26,.73,4.73,.42,1.5-.13,3.18,.89,4.52,.05,.06,.06,.18,.04,.26-.28,1.6,.33,3.14,.7,4.58,.37,1.45,.19,2.95,.79,4.4,.43,1.03,.29,2.35,.67,3.51,.2,.62-.07,.97-.85,.92-1.36-.08-2.72-.04-4.08-.04-.46,0-.68-.11-.8-.64-.42-1.84-.88-3.67-1.06-5.55-.06-.6-.42-.6-.84-.6-1.66,0-3.3-.01-4.93-.41-.56-.14-.88,.54-.92,.89-.17,1.41-.98,2.59-1.22,3.97-.14,.76-.57,1.34-1.55,1.27-1.22-.09-2.45-.01-3.67-.05-.88-.03-1.27-.43-.96-1.16,.49-1.14,.9-2.29,1.28-3.47,.43-1.31,1.06-2.57,1.34-3.91,.28-1.38,.8-2.67,1.27-3.96,.47-1.31,.95-2.61,1.18-3.97,.16-.96,.53-1.8,.92-2.65,.32-.71,.48-1.5,.68-2.23,.42-1.56,1.11-3,1.56-4.53,.22-.75,.56-1.47,.66-2.23,.09-.65,.42-.7,.91-.7,.82,0,1.63,0,2.45,0v-.03Zm-.75,17.96c1.51,.06,1.98-.65,1.32-1.79-.22-.38-.41-.73-.33-1.1,.28-1.43-.74-2.66-.6-4.06,.01-.11-.02-.28-.22-.27-.17,.01-.2,.13-.24,.26-.38,1.27-1.03,2.47-1.16,3.82-.05,.49-.13,1-.31,1.44-.14,.35-.66,.65-.32,1.03,.27,.3,.74,.46,1.15,.6,.29,.1,.63,.05,.72,.06Z"/><path class="m" d="M57.98,39.47l.52,.09c0,12,0,24,.04,36,0,.92-.22,1.31-1.2,1.22-2.41-.23-4.72,.59-7.09,.72-.32,.02-.63,.03-.95,.04,0-12.2,0-24.4,0-36.61,.4,.09,.81-.03,1.21,.28,.31,.24,.78,.37,1.11-.09,.59,0,1.13-.28,1.73-.25,1.7,.08,3.17-.69,4.64-1.39Z"/><path class="b" d="M148.62,25.89c.4,.03,.52,.26,.51,.64-.03,.9-.04,1.8-.05,2.7-.18,.03-.4,.05-.41,.27-.03,.81-.36,1.54-.54,2.31-.46,1.99-1.64,3.51-2.84,5.07-.75,.98-1.93,1.29-2.73,2.14-.73,.78-1.69,1.03-2.67,1.35-1.15,.37-2.37,.39-3.49,.78-.83,.29-1.58,.36-2.34-.04-.38-.2-.78-.22-1.19-.22-1.42,.02-2.65-.64-3.91-1.13-1.8-.71-3.15-2.07-4.33-3.53-1.41-1.75-2.7-3.61-3.02-5.93-.04-.29-.24-.48-.52-.58,.02-1.09,.04-2.18,.06-3.27,8.77,0,17.55,.02,26.32,.01,.45,0,1.06,.22,1.15-.56Z"/><path class="b" d="M65.31,28.36v-.81c.01-.35,.05-.7,.04-1.05-.02-.38,.12-.58,.5-.61,.04,.59,.47,.56,.89,.56,.81,0,1.63,0,2.44,0,8.04,0,16.09-.01,24.13-.02l.08,3.27c-.31,.06-.72,.07-.36,.57l-.02,.51c-.51,.44-.88,.94-.68,1.67l-.06,.27c-.58,.03-.57,.4-.48,.82l-.06,.3c-.6,0-.56,.38-.49,.79-.68,.37-1.01,1.04-1.47,1.61-.81,1.01-1.74,1.92-2.8,2.73-1.44,1.1-3.13,1.43-4.77,1.87-.78,.21-1.68,.21-2.52,.39-.31,.07-.59,.21-.92,.1-1.56-.52-3.22-.61-4.79-1.12-.74-.24-1.36-.55-1.93-1.05-.32-.28-.66-.55-1.07-.77-1.68-.9-2.85-2.47-3.65-4.03-.69-1.34-1.54-2.82-1.48-4.5,.01-.36-.31-.17-.51-.14l-.02-1.35Z"/><path class="e" d="M202.67,105.62c-.76-.07-1.32-.61-2.01-.87-1.02-.38-1.99-.85-3.09-1.08-1.03-.21-1.99-.76-2.96-1.2-2.05-.94-4.18-1.73-6.21-2.7-3.38-1.6-7.08-2.43-10.31-4.37-.25-.15-.63-.07-.91-.18-.79-.33-1.04-1.32-.64-2.24,1.01-2.32,2.22-4.58,2.89-7.01,.43-1.54,1.25-2.84,1.83-4.28,.15-.37,.42-.31,.66-.17,1.08,.6,2.21,1.04,3.42,1.29,.61,.13,.86,1.22,.4,1.97-1.09,1.75-1.28,3.85-2.25,5.65-.24,.45-.14,.94,.61,1.44,1.36,.91,2.99,.88,4.34,1.68,.74,.44,1.55-.32,1.77-1.53,.25-1.38,.74-2.68,1.37-3.92,.64-1.27,.97-1.33,2.22-.68,.59,.31,1.27,.37,1.92,.53,.97,.24,1.45,1.29,.89,2.1-.49,.7-.6,1.52-.9,2.27-.41,1-.71,2.04-1.22,3-.24,.46-.33,.85,.46,1.06,1.02,.28,2.03,.74,2.93,1.29,.66,.4,1.38,.35,2.05,.54,.55,.16,1.1-.1,1.2-.9,.28-2.05,1.33-3.81,2.22-5.63,.08-.16,.15-.31,.2-.48,.3-1.11,1.09-1.51,2.03-.86,.82,.57,1.73,.96,2.62,1.32,.73,.29,.7,.77,.47,1.13-1.39,2.23-1.9,4.81-2.94,7.17-.62,1.4-.96,2.94-1.97,4.16-.18,.22-.17,.51-.17,.78,0,.62-.39,.74-.91,.73Z"/><path class="e" d="M66.61,124.87c-.48,1.58-1.41,2.73-2.37,3.86-.19,.23-.3,.19-.53,.03-.69-.51-1.35-1.1-2-1.59-.94-.7-1.71-1.75-2.95-2.06-.25-.06-.51-.19-.72-.35-1.1-.79-1.21-.76-1.91,.28-.77,1.15-1.58,2.28-2.4,3.39-.59,.79-.47,1.27,.4,1.66,1.84,.83,3.15,2.31,4.48,3.74,.45,.48,.05,1.19-.32,1.65-.54,.68-1.21,1.23-1.55,2.08-.15,.37-.49,.59-1.03,.15-1.7-1.38-3.7-2.35-5.33-3.82-.34-.3-.35-.06-.57,.12-.85,.69-1.46,1.59-2.1,2.44-.42,.56-.76,1.2-1.26,1.68-.52,.5-.45,.75,0,1.3,.81,1.01,2.1,1.16,3.03,1.94,1.19,1,2.42,1.94,3.57,2.99,.47,.43,.45,.89,.07,1.11-1.07,.61-1.49,1.68-2.05,2.63-.35,.59-.7,.62-1.19,.28-1.35-.94-2.68-1.92-4.05-2.83-1.63-1.09-3.06-2.45-4.79-3.4-.24-.13-.59-.33-.74-.72-.18-.47-.57-.68-1.1-.81-.95-.23-1.04-.65-.39-1.37,.82-.92,1.29-2.06,1.97-3.07,.25-.36,.44-.73,.81-.96,.94-.57,1.15-1.69,1.86-2.46,.42-.47,.78-1.12,1.21-1.65,1.17-1.46,2.05-3.12,3.17-4.62,.47-.63,.99-1.22,1.52-1.79,.86-.92,1.53-1.95,2.11-3.07,.81-1.55,2.12-2.72,3.18-4.08,.13-.17,.3-.29,.36-.52,.22-.85,.86-.82,1.32-.39,1.48,1.35,3.29,2.21,4.83,3.43,1.22,.96,2.61,1.7,3.65,2.86,.38,.42,.93,.35,1.33,.79,.38,.42,.26,.85,.51,1.14Z"/><path class="e" d="M129.02,132.53c.74-.14,.85,.23,1.18,.91,.52,1.11,.1,2.39,.91,3.39,.21,.26,.14,.79-.49,.86-1.61,.17-3.16,.63-4.72,1.01-.81,.19-1.61,.45-2.43,.59-.56,.1-.79,.24-.74,.84,.18,1.84,.68,3.6,1.15,5.38,.12,.44,.51,.27,.8,.26,1.64-.03,3.15-.89,4.81-.79,.09,0,.18-.02,.27-.05,1.55-.58,2.1-.22,2.24,1.43,.04,.43,.03,.83,.28,1.28,.73,1.32,.12,2.42-1.63,2.48-1.33,.04-2.48,.85-3.81,.63-.55-.09-.71,.47-1.17,.57-.72,.16-.15,.72-.19,1.09-.18,1.44,.76,2.72,.67,4.16-.08,1.49,.81,2.82,.69,4.32,0,.09,0,.19,.02,.27,.21,.55,.93,1.31,.34,1.62-.63,.33-1.36,.77-2.18,.75-.66-.02-1.27,.03-1.92,.41-.9,.53-1.26,.04-1.53-1-.3-1.17-.46-2.37-.82-3.54-.34-1.09-.19-2.34-.51-3.45-.38-1.34-.33-2.76-.94-4.05-.35-.74-.37-1.65-.49-2.43-.19-1.18-.46-2.38-.8-3.48-.39-1.25-.17-2.62-.87-3.79-.41-.68-.27-1.55-.44-2.32-.28-1.27-.83-2.52-.79-3.86,.01-.41-.03-.84,.61-.81,.67,.03,1.35-.4,1.86-.4,1.28-.02,2.45-.49,3.6-.79,1.2-.32,2.46-.42,3.67-.78,1.05-.31,2.14-.9,3.35-.72Z"/><path class="e" d="M152.67,154.47c-.1,.34-.22,.8-.57,.82-1.31,.07-2.25,1.09-3.5,1.31-.74,.13-1.06,.2-1.48-.71-.96-2.12-1.98-4.24-2.98-6.35-.77-1.62-1.44-3.3-2.09-4.98-.47-1.22-.86-2.48-1.58-3.62-.94-1.47-1.37-3.2-2.17-4.77-.89-1.76-1.72-3.57-2.24-5.51-.11-.4-.1-.44,.23-.67,1.26-.85,2.72-1.26,4.03-1.99,.61-.34,.97,.3,1.13,.65,.56,1.22,.94,2.52,1.46,3.75,.75,1.77,1.56,3.51,2.36,5.25,.78,1.71,1.73,3.35,2.23,5.17,.4,1.46,1.29,2.7,1.84,4.1,.78,2,1.82,3.88,2.65,5.87,.23,.54,.32,1.16,.68,1.68Z"/><path class="h" d="M65.85,25.89c-.39,.02-.52,.23-.5,.61,.02,.35-.02,.7-.04,1.05-.21,.09-.41,.24-.62,.25-.31,0-.75,.52-.92-.04-.13-.41-.32-1.04,.33-1.28,.82-.3,1.28-.58,.28-1.27-.23-.16-.14-.51-.12-.77,0-.07,.09-.36,.2-.11,.45,.96,1.29,.31,1.91,.5,.19,.54-.66,.56-.53,1.07Z"/><path class="e" d="M16.12,77.36c-.01-.33-.14-.73,.35-.83,.4-.08,.68,.05,.68,.52-.42-.15-.62,.43-1.04,.31Z"/><path class="e" d="M17.16,77.05c.38,0,.79-.08,.83,.49-.3-.12-.67-.12-.83-.49Z"/><path class="e" d="M15.8,77.6c.05-.15,.16-.25,.32-.26-.03,.18-.12,.28-.32,.26Z"/><path class="k" d="M157.06,40.04c-.52-.02-.89,.11-.84,.75,.03,.36,0,.72,0,1.09,0,13.34,0,26.69,0,40.03-.48-.33-.25-.83-.25-1.24-.01-13.33,0-26.66-.02-39.99,0-.76,0-1.41,1.06-1.11l.05,.48Z"/><path class="l" d="M126.01,83.34c4.12-.02,8.24-.04,12.36-.06,.77,0,1.54-.04,2.31,0,3.74,.2,7.41-.84,11.15-.64-.32,.43-.78,.39-1.23,.39-1.18,0-2.38-.15-3.53,.04-6.78,1.11-13.59,.23-20.38,.5-.23,0-.45,0-.68-.01,0-.07,0-.14,0-.21Z"/><path class="e" d="M144.03,97.46c-.38,.77-1.11,.5-1.68,.5-5.25,.03-10.5,.03-15.75,.02-2.22,0-4.43-.01-6.65-.06-.45-.01-1.04,.15-1.29-.48,7.92,.59,15.85,.11,23.78,.28,.56,.01,1.04-.27,1.59-.26Z"/><path class="e" d="M126.01,83.34c0,.07,0,.14,0,.21-3.02,0-6.04,.01-9.06,.02-.07,0-.18-.04-.21-.09-.03-.04,.04-.14,.07-.21l9.21,.07Z"/><path class="g" d="M59.52,37.71s.08-.05,.11-.04c.12,.03,.13,.09,.03,.15-.03,.02-.08,0-.11-.02-.02-.01-.02-.06-.02-.09Z"/><path class="h" d="M151.84,34.94c-.87-.25-.94-1.08-1.24-1.73-.47-1.02-1.05-2.02-.92-3.22,.63,.75,1.7,1.25,1.22,2.6-.15,.42,.06,1.1,.58,1.41,.39,.24,.39,.57,.36,.93Z"/><path class="h" d="M156.22,37.88c-.02-.13-.03-.27-.06-.39-.07-.24-.31-.54,.1-.64,.5-.11,.73,.38,.87,.67,.17,.35-.27,.32-.51,.35-.13,.01-.27,0-.4,0h0Z"/><path class="h" d="M157.75,39.13c-.21,.05-.37,0-.39-.22-.05-.46,.28-.48,.6-.48,.21,0,.54-.05,.55,.2,.02,.5-.54,.29-.76,.5Z"/><path class="h" d="M57.98,39.47c-1.48,.7-2.94,1.47-4.64,1.39-.6-.03-1.14,.25-1.73,.25-.17-.03-.39,0-.51-.09-.2-.16-.05-.35,.13-.39,.48-.1,.71-.69,1.3-.59,.34,.06,.65,.02,.87-.43,.21-.41,1.06-.35,1.13-.23,.61,1.11,1.04,.63,1.73,.04,.35-.29,1.18-.88,1.72,.05Z"/><path class="h" d="M65.33,29.71c-.41,.19-.84,.29-.57,.96,.13,.33,.21,.94-.49,1.01-.27-.5-1.4-.19-1.11-1.19,.25-.84,.48-1.7,1.51-1.94,.22-.05,.43-.12,.64-.19l.02,1.35Z"/><path class="h" d="M61.52,36.84c-.33,.07-.34,.65-.8,.52-.08-.47,.36-1.13-.62-1.24-.35-.04-.23-.6-.09-.93,.17-.42,.47-.7,.92-.52,.56,.22,1.13,.21,1.7,.25-.09,.81-.73,1.3-1.12,1.93Z"/><path class="h" d="M64.21,31.9c.17,.81-.36,1.34-.76,1.92-.05-.27-.08-.5-.47-.49-.51,.01-.78-.37-.88-.81-.05-.23,.09-.7,.38-.41,.74,.73,1.17-.05,1.73-.21Z"/><path class="h" d="M63.46,33.82c-.06,.53-.16,1.03-.82,1.11,.03-.13,.14-.31,.08-.38-.38-.51-.44-.79,.36-.61,.11,.03,.25-.07,.38-.11Z"/><path class="h" d="M58.26,38.42l.12,.12s-.06,0-.08-.02c-.02-.03-.03-.07-.05-.1h0Z"/><path class="h" d="M58.26,38.42l-.12-.12s.06,0,.08,.02c.02,.03,.03,.07,.05,.1h0Z"/><path class="f" d="M134.72,71.01h.54c3.44,.04,6.88,.07,10.32,.11l.05,.48c-.03,.22-.07,.45-.08,.67q-.13,2.29-2.47,2.29c-23.87,0-47.75,0-71.62,0-.5,0-.99,.03-1.49,.05h-.28c-1.03-.8-.63-1.99-.84-3.02l.27-.78,.03-.05s.07,.07,.09,.12c.4,.31,.84,.13,1.27,.11h2.99c1.81,.01,3.62,.04,5.43,.04,12.63,0,25.25,0,37.88,0,5.97,0,11.95-.02,17.92-.04Z"/><path class="g" d="M136.35,46.53h1.36c1.53,0,3.02,.07,3.85,1.68l.02,1.63v.26c-.01,5.93-.03,11.86-.05,17.79,0,.5-.01,1-.02,1.49l-1.9,.08h-.81c-.91-.07-1.82-.08-2.73,0-1.09-.07-2.17-.08-3.26,0q-1.35-.11-1.36-1.45c-.02-2.07-.04-4.15-.06-6.22v-.55c.02-.5,.05-.99,.06-1.49,.02-4.02,.03-8.04,.05-12.06h0c.82-.36,1.32-1.36,2.41-1.18,.54,.08,1.09,.07,1.63,0h.82Z"/><path class="j" d="M94.9,62.51c-.04,.08-.03,.16,.04,.23-.38,.37-.18,.81-.16,1.24v3.27c-.03,.31-.06,.63-.07,.94q-.03,1.23-1.25,1.25c-1.75,.02-3.51,.03-5.26,.05h-.54l-3.23-.1h0c.04-.83,.45-1.65,.02-2.53-.15-.31-.12-.82,.19-1.16,.21-.23,.3-.53,.14-.74-.56-.69-.29-1.47-.3-2.22-.04-1.9,.09-3.8-.12-5.7,.23-2.37,.1-4.75,.07-7.12,.2-.07,.48-.14,.44-.39-.12-.74,.42-1.23,.65-1.84h-.01c2.71-.02,5.43-.04,8.14-.07l.33,.32c-.05,.18,.07,.23,.21,.27h0c-.2,.69,.45,1.06,.59,1.62,0,3.9,0,7.8,0,11.7-.04,.34-.15,.68,.13,.98Z"/><path class="d" d="M72.9,68.34l.1-.56c1.1-.1,1.14-.42,1.89-1.28,.68-.78,.83-1.52,.78-2.43-.04-.77-.79-1.29-1.33-.82-.35,.31-1.04,.54-.87,1.3,.08,.35,.05,.75-.48,.79l-.1-6.8c.04-.09,.04-.18,0-.26l.07-1.35,.47-.04c.84-.66,1.84-.51,2.81-.52,1.58,0,3.16,.03,4.73-.02,.62-.02,1.13,.14,1.58,.53,.33,0,.47,.18,.46,.49-.02,.57-.04,1.14-.05,1.71-1.09,.55-2.21,1.04-3.26,1.66-1.05,.62-2.4,.7-3.19,1.83-.34,.49-.42,.93-.13,1.35,.32,.47,.93,.5,1.32,.15,.44-.4,.89-.36,1.38-.37,.49-.01,.91-.17,1.38-.35,.76-.29,1.65-.42,2.52-.21l.02,6.25h0c-1.36,.02-2.71,.05-4.07,.07h-2.99c-.63-.08-1.27-.08-1.9,0l-1.08-.08-.06-.79v-.26Zm5.29-3.55c-.38,.03-.84-.06-.86,.55-.01,.31,.13,.61,.44,.48,.39-.15,.85-.4,1.02-.73,.14-.3-.34-.26-.6-.3Z"/><path class="e" d="M114.09,50.91c-.09-1.44-.08-2.88-.02-4.31,3.25,0,6.5,0,9.75,.01l.07,3.77-.1,.54c-3.23,0-6.47,0-9.7,0Z"/><path class="j" d="M112.28,46.58c.2,1.25,.1,2.51,.07,3.76-3.4,.14-6.81,.14-10.21,0-.08-1.24-.1-2.49,.03-3.73l2.89-.09h.55l6.67,.05Z"/><path class="i" d="M102.14,50.35c3.4,.13,6.81,.14,10.21,0,.03,2.05,.06,4.1,.07,6.15,0,.31,.19,.73-.28,.92,0-1.08,.17-2.18-.28-3.22-.15-.3-.43-.27-.7-.27-2.61,0-5.22,0-7.84,0-.26,0-.55-.04-.7,.27-.52,1.07-.27,2.16-.03,3.24-.79,.03-.54-.58-.55-.96-.02-1.49,0-2.97,.01-4.46v-.55l.08-1.13Z"/><path class="d" d="M119.78,62.07c0-.8,.03-1.61-.03-2.41-.07-.91,.34-1.14,1.17-1.12,1.61,.03,3.22-.02,4.82-.03h1.63l2.16,.05,.05,.27c-.03,1.17-.06,2.35-.09,3.52-3.07,0-6.14,.01-9.21,.02-.11-.21-.31-.25-.51-.29Z"/><path class="h" d="M101.79,58.5c1.08,.02,2.17,.09,3.25,.03,.88-.05,1.27,.22,1.11,1.12-.03,.18-.03,.36-.05,.54-.3,.23-.21,.57-.23,.87-.05,1.28-.05,1.28-1.38,1.29-2.17,0-4.33-.07-6.49,.03-.94,.04-1.38-.28-1.6-1.11q-.17-2.73,2.56-2.74c.94,0,1.89-.03,2.83-.04Z"/><path class="e" d="M106.11,65.87c.04,1.12,.47,2.55-.14,3.29-.64,.77-2.12,.23-3.23,.26-1.81,.05-3.61-.02-5.42,.03-.77,.02-1.05-.22-.98-.99,.05-.49-.03-.99-.05-1.48v-1.09l.05-.03,.05,.05c3.24,0,6.47-.02,9.71-.03Z"/><path class="k" d="M106.11,65.87c-3.24,0-6.47,.02-9.71,.03v-3h9.71v2.97Z"/><path class="i" d="M129.5,62.34c.03-1.17,.06-2.35,.09-3.52l.47,.1c-.02,.06-.02,.12,.02,.17l.04,.27c0,.82,.01,1.63,.02,2.45-.39,1.26-.6,2.54-.62,3.86l-1.03-.04c-.22-.03-.39-.1-.55-.3-.58-.74-1.13-.75-1.66-.03-.15,.2-.3,.3-.52,.32h-.81c-.82,.07-1.17-.89-2.05-.85-1.07,.05-2.14,0-3.11,.56,0-1.09,0-2.18-.01-3.27,.2,.04,.41,.08,.51,.29,.16,.29,.44,.27,.7,.27,2.61,0,5.22,0,7.83,0,.26,0,.55,.05,.68-.29Z"/><path class="m" d="M114.09,50.91c3.23,0,6.47,0,9.7,0l.09,.28c-.07,.45-.08,.91,0,1.36v1.1l-.09-.03h-9.7c-.07-.9-.07-1.81,0-2.72Z"/><path class="l" d="M73,65.34c.53-.04,.56-.44,.48-.79-.17-.76,.52-.99,.87-1.3,.53-.47,1.28,.05,1.33,.82,.05,.91-.1,1.65-.78,2.43-.75,.86-.79,1.18-1.89,1.28l-.1,.02c.1-.55,.09-1.09,.02-1.64l.08-.82Z"/><path class="e" d="M96.4,61.28c.22,.83,.66,1.15,1.6,1.11,2.16-.1,4.33-.03,6.49-.03,1.33,0,1.33,0,1.38-1.29,.01-.31-.07-.64,.23-.87,.09,.82,.08,1.64,.02,2.46-3.25,0-6.49,.02-9.74,.02l.02-1.4Z"/><path class="f" d="M96.38,62.67c3.25,0,6.49-.02,9.74-.02,.05,.09,.05,.17-.01,.25h-9.71c-.05-.07-.06-.15-.02-.23Z"/><path class="g" d="M108.36,62.08c-.04-1.12-.46-2.52,.16-3.28,.6-.74,2.04-.22,3.1-.24,1.99-.03,3.97,.02,5.96,.04,.47,1.31,.2,2.67,.27,4.01-1.45,0-2.9,0-4.35,.01-1.68-.51-3.45-.17-5.14-.55Z"/><path class="d" d="M118.07,65.9c.07,1.12,.46,2.52-.14,3.28-.58,.74-2.03,.22-3.09,.24-1.89,.04-3.79,0-5.68,.03-.64,.01-.9-.18-.86-.84,.06-.9,.05-1.8,.06-2.7l4.59-.02h1.09c1.35,0,2.69,0,4.04,0Z"/><path class="j" d="M111.86,54.2c.45,1.04,.27,2.14,.28,3.22l-9.55,.02c-.23-1.08-.49-2.16,.03-3.24,3.08,0,6.16,0,9.24,0Z"/><path class="j" d="M129.54,69.36c-3.17,.12-6.34,.13-9.5,0,.05-.71-.01-1.42,.12-2.15,.15-.85,.53-1.09,1.35-1.06,1.62,.06,3.25,.01,4.87,.02q3.19,.01,3.16,3.2Z"/><path class="g" d="M123.29,57.4c-2.99,.09-5.98,.1-8.98,0,0-.63,0-1.27,0-1.9,.01-1.28,.01-1.29,1.25-1.3,1.99,0,3.99,0,5.99,0,2.12,0,2.38,.31,1.98,2.43-.05,.26-.16,.52-.24,.77Z"/><path class="j" d="M114.03,65.89h-1.09c.11-.77-.13-1.2-1-1.1-1.2,.14-2.39-.51-3.59,0-.06-.36-.07-.71,.02-1.07,.27,0,.57,.06,.81-.03,.75-.26-.37-.31-.07-.45,.35-.18,.68,0,1,.2,.56,.36,1.18,.47,1.73-.02,.17-.15,.53-.29,.38-.63-.11-.25-.39-.18-.6-.18-1.09,0-2.17,0-3.26-.01l-.02-.54c1.69,.38,3.46,.04,5.14,.55-.06,.16-.08,.38-.2,.47-.32,.27-.44,.58-.24,.94,.18,.33,.56,.21,.85,.21,.3,0,.59-.03,.89-.18,.95-.49,1.89-1.08,3.05-.88v1.06c-1.02-.26-1.86,.5-2.8,.52-.87,.02-1.12,.35-1.02,1.13Z"/><path class="l" d="M129.54,69.36q.02-3.18-3.16-3.2c-1.63,0-3.25,.04-4.87-.02-.82-.03-1.19,.21-1.35,1.06-.13,.73-.07,1.43-.12,2.15-.56-1.1-.19-2.26-.22-3.39,1.11-.02,2.22-.03,3.34-.08,.6-.03,1.25,.21,1.79-.25h.81c.91,.37,1.82,.41,2.73,0l1.03,.04c.99,1.11,.52,2.39,.39,3.62,0,.04-.24,.05-.37,.07Z"/><path class="l" d="M114.03,65.89c-.1-.78,.16-1.11,1.02-1.13,.94-.02,1.78-.78,2.8-.52h.23v1.65c-1.36,0-2.71,0-4.05,0Z"/><path class="l" d="M108.35,64.79c1.2-.5,2.4,.15,3.59,0,.87-.11,1.1,.32,1,1.09l-4.59,.02v-1.11Z"/><path class="e" d="M123.29,57.4c.08-.26,.19-.51,.24-.77,.4-2.13,.14-2.43-1.98-2.43-2,0-3.99,0-5.99,0-1.24,0-1.24,.02-1.25,1.3,0,.63,0,1.27,0,1.9-.61-1.12-.16-2.31-.23-3.46h9.7c.02,.99,.03,1.97,.05,2.96,0,.38-.13,.6-.55,.51Z"/><path class="b" d="M124.95,65.63c-.54,.46-1.19,.22-1.79,.25-1.11,.06-2.22,.06-3.34,.08l-.03-.63c.97-.56,2.03-.51,3.11-.56,.88-.04,1.23,.92,2.05,.86Z"/><path class="l" d="M108.38,62.62c1.09,0,2.17,0,3.26,.01,.21,0,.49-.07,.6,.18,.15,.34-.21,.47-.38,.63-.55,.49-1.17,.38-1.73,.02-.33-.21-.65-.38-1-.2-.29,.15,.82,.19,.07,.45-.24,.08-.54,.02-.81,.03v-1.11Z"/><path class="f" d="M123.79,53.95h-9.7v-.3h9.7v.3Z"/><path class="e" d="M118.08,64.25h-.23v-1.63c-.07-1.34,.2-2.7-.27-4.01,.71-.09,.53,.45,.54,.8,0,1.61-.02,3.23-.03,4.84Z"/><path class="l" d="M82.97,59.09c.09,1.36,.07,2.72,.01,4.07-.86-.22-1.75-.09-2.52,.21-.47,.18-.89,.33-1.38,.35-.49,.01-.94-.03-1.38,.37-.39,.35-.99,.32-1.32-.15-.29-.42-.21-.86,.13-1.35,.79-1.14,2.13-1.21,3.19-1.83,1.05-.62,2.17-1.11,3.26-1.66Z"/><path class="l" d="M73.44,56.89c.29-1.06,1.27-1.21,2.06-1.28,1.66-.14,3.35-.14,5.01,0,.79,.07,1.79,.19,2.05,1.28-.45-.4-.96-.55-1.58-.53-1.58,.05-3.15,.01-4.73,.02-.96,0-1.96-.15-2.81,.52Z"/><path class="l" d="M78.19,64.79c.25,.04,.74,0,.6,.3-.16,.34-.63,.58-1.02,.73-.31,.12-.45-.17-.44-.48,.02-.61,.49-.52,.86-.55Z"/><path class="e" d="M111.86,54.2c-3.08,0-6.16,0-9.24,0,.15-.3,.44-.27,.7-.27,2.61,0,5.22,0,7.84,0,.27,0,.55-.03,.7,.27Z"/><path class="l" d="M129.5,62.34c-.12,.34-.41,.29-.68,.29-2.61,0-5.22,0-7.83,0-.27,0-.55,.02-.7-.27,3.07,0,6.14-.01,9.21-.02Z"/><path class="b" d="M128.49,65.63c-.91,.41-1.82,.37-2.73,0,.23-.02,.38-.12,.52-.32,.53-.72,1.09-.71,1.66,.03,.15,.2,.33,.27,.55,.3Z"/><path class="l" d="M117.85,62.62v.57c-1.16-.2-2.1,.39-3.05,.88-.3,.16-.59,.19-.89,.18-.3,0-.67,.11-.85-.21-.2-.35-.08-.67,.24-.94,.12-.1,.14-.31,.2-.47,1.45,0,2.9,0,4.35-.01Z"/></g></svg>